<?xml version="1.0" encoding="UTF-8"?>
<!DOCTYPE svg PUBLIC "-//W3C//DTD SVG 1.1//EN" "http://www.w3.org/Graphics/SVG/1.1/DTD/svg11.dtd">
<svg xmlns="http://www.w3.org/2000/svg" version="1.1" width="1024px" height="1024px" style="shape-rendering:geometricPrecision; text-rendering:geometricPrecision; image-rendering:optimizeQuality; fill-rule:evenodd; clip-rule:evenodd" xmlns:xlink="http://www.w3.org/1999/xlink">
<g><path style="opacity:1" fill="#1865aa" d="M -0.5,-0.5 C 340.833,-0.5 682.167,-0.5 1023.5,-0.5C 1023.5,340.833 1023.5,682.167 1023.5,1023.5C 682.167,1023.5 340.833,1023.5 -0.5,1023.5C -0.5,682.167 -0.5,340.833 -0.5,-0.5 Z"/></g>
<g><path style="opacity:1" fill="#023b98" d="M 231.5,225.5 C 231.198,255.525 231.531,285.525 232.5,315.5C 231.778,315.082 231.278,314.416 231,313.5C 230.833,298.667 230.667,283.833 230.5,269C 230.492,253.76 230.825,239.26 231.5,225.5 Z"/></g>
<g><path style="opacity:1" fill="#faf9f7" d="M 782.5,330.5 C 754.5,357.833 726.833,385.5 699.5,413.5C 666.201,446.299 633.035,479.299 600,512.5C 599.667,570.167 599.333,627.833 599,685.5C 595.261,697.237 588.428,706.737 578.5,714C 541.993,738.753 505.659,763.753 469.5,789C 462.777,793.947 455.277,796.781 447,797.5C 435.085,796.074 427.252,789.741 423.5,778.5C 423.667,689.499 423.5,600.499 423,511.5C 364.271,452.27 305.104,393.604 245.5,335.5C 240.145,329.445 235.811,322.779 232.5,315.5C 231.531,285.525 231.198,255.525 231.5,225.5C 233.982,219.52 238.315,215.353 244.5,213C 422.167,212.333 599.833,212.333 777.5,213C 784,215.5 788.5,220 791,226.5C 791.667,254.833 791.667,283.167 791,311.5C 789.218,318.389 786.385,324.723 782.5,330.5 Z"/></g>
<g><path style="opacity:1" fill="#05479c" d="M 292.5,279.5 C 292.833,279.5 293.167,279.5 293.5,279.5C 293.334,285.509 293.501,291.509 294,297.5C 355.751,358.75 416.917,420.417 477.5,482.5C 415.868,421.368 354.368,360.035 293,298.5C 292.5,292.175 292.334,285.842 292.5,279.5 Z"/></g>
<g><path style="opacity:1" fill="#1965aa" d="M 293.5,279.5 C 438.833,279.5 584.167,279.5 729.5,279.5C 729.666,285.509 729.499,291.509 729,297.5C 727.519,298.471 726.685,299.804 726.5,301.5C 713.5,315.167 700.167,328.5 686.5,341.5C 685.761,341.369 685.094,341.536 684.5,342C 677.239,348.756 670.572,355.922 664.5,363.5C 626.112,402.389 587.279,441.389 548,480.5C 545.289,483.933 543.123,487.6 541.5,491.5C 540.831,549.902 540.165,608.402 539.5,667C 539.728,667.399 540.062,667.565 540.5,667.5C 521.871,680.487 503.204,693.487 484.5,706.5C 483.67,635.904 483.17,565.237 483,494.5C 482.833,565.335 482.333,636.001 481.5,706.5C 481.667,634.499 481.5,562.499 481,490.5C 480.079,487.664 478.912,484.998 477.5,482.5C 416.917,420.417 355.751,358.75 294,297.5C 293.501,291.509 293.334,285.509 293.5,279.5 Z"/></g>
<g><path style="opacity:1" fill="#002f92" d="M 292.5,279.5 C 438.332,278.5 584.332,278.167 730.5,278.5C 730.666,285.175 730.5,291.842 730,298.5C 728.961,299.71 727.794,300.71 726.5,301.5C 726.685,299.804 727.519,298.471 729,297.5C 729.499,291.509 729.666,285.509 729.5,279.5C 584.167,279.5 438.833,279.5 293.5,279.5C 293.167,279.5 292.833,279.5 292.5,279.5 Z"/></g>
<g><path style="opacity:1" fill="#05459b" d="M 686.5,341.5 C 679.5,349.167 672.167,356.5 664.5,363.5C 670.572,355.922 677.239,348.756 684.5,342C 685.094,341.536 685.761,341.369 686.5,341.5 Z"/></g>
<g><path style="opacity:1" fill="#084a9d" d="M 782.5,330.5 C 756.086,358.416 729.086,385.916 701.5,413C 700.906,413.464 700.239,413.631 699.5,413.5C 726.833,385.5 754.5,357.833 782.5,330.5 Z"/></g>
<g><path style="opacity:1" fill="#12479d" d="M 245.5,335.5 C 305.104,393.604 364.271,452.27 423,511.5C 423.5,600.499 423.667,689.499 423.5,778.5C 422.666,690.57 422.166,601.903 422,512.5C 362.863,453.53 304.03,394.53 245.5,335.5 Z"/></g>
<g><path style="opacity:1" fill="#004499" d="M 484.5,706.5 C 483.348,707.625 482.348,707.625 481.5,706.5C 482.333,636.001 482.833,565.335 483,494.5C 483.17,565.237 483.67,635.904 484.5,706.5 Z"/></g>
<g><path style="opacity:1" fill="#003795" d="M 541.5,491.5 C 541.832,550.336 541.499,609.002 540.5,667.5C 540.062,667.565 539.728,667.399 539.5,667C 540.165,608.402 540.831,549.902 541.5,491.5 Z"/></g>
</svg>
